<svg width="87" height="20" viewBox="0 0 87 20" fill="none" xmlns="http://www.w3.org/2000/svg">
<path d="M26.068 10.556C24.724 10.556 22.576 10.676 22.576 12.5C22.576 13.592 23.512 14.144 24.508 14.144C25.408 14.144 26.032 13.832 26.488 13.088H26.512C26.512 13.388 26.536 13.724 26.584 14H27.352C27.304 13.7 27.256 13.172 27.256 12.74V10.232C27.256 8.864 26.308 8.24 25.204 8.24C24.148 8.24 23.344 8.528 22.828 9.056L23.308 9.62C23.788 9.188 24.364 8.96 25.024 8.96C25.996 8.96 26.464 9.44 26.464 10.412V10.556H26.068ZM26.464 11.204V11.612C26.464 12.608 25.912 13.424 24.76 13.424C24.124 13.424 23.44 13.136 23.44 12.392C23.44 11.264 25.252 11.204 26.056 11.204H26.464ZM34.6907 4.928H33.8987V9.32H33.8747C33.3587 8.564 32.4347 8.24 31.6907 8.24C29.9387 8.24 28.7027 9.5 28.7027 11.192C28.7027 12.884 29.9387 14.144 31.6907 14.144C32.4347 14.144 33.3587 13.82 33.8747 13.064H33.8987V14H34.6907V4.928ZM29.5667 11.192C29.5667 9.932 30.3827 8.96 31.6907 8.96C32.9867 8.96 33.9347 9.932 33.9347 11.192C33.9347 12.452 32.9867 13.424 31.6907 13.424C30.3827 13.424 29.5667 12.452 29.5667 11.192ZM42.0266 4.928H41.2346V9.32H41.2106C40.6946 8.564 39.7706 8.24 39.0266 8.24C37.2746 8.24 36.0386 9.5 36.0386 11.192C36.0386 12.884 37.2746 14.144 39.0266 14.144C39.7706 14.144 40.6946 13.82 41.2106 13.064H41.2346V14H42.0266V4.928ZM36.9026 11.192C36.9026 9.932 37.7186 8.96 39.0266 8.96C40.3226 8.96 41.2706 9.932 41.2706 11.192C41.2706 12.452 40.3226 13.424 39.0266 13.424C37.7186 13.424 36.9026 12.452 36.9026 11.192ZM46.4024 8.384L48.1784 14H49.0664L50.5544 9.392H50.5784L52.0664 14H52.9544L54.7304 8.384H53.7944L52.4984 12.944H52.4744L50.9744 8.384H50.1584L48.6584 12.944H48.6344L47.3384 8.384H46.4024ZM58.9625 10.556C57.6185 10.556 55.4705 10.676 55.4705 12.5C55.4705 13.592 56.4065 14.144 57.4025 14.144C58.3025 14.144 58.9265 13.832 59.3825 13.088H59.4065C59.4065 13.388 59.4305 13.724 59.4785 14H60.2465C60.1985 13.7 60.1505 13.172 60.1505 12.74V10.232C60.1505 8.864 59.2025 8.24 58.0985 8.24C57.0425 8.24 56.2385 8.528 55.7225 9.056L56.2025 9.62C56.6825 9.188 57.2585 8.96 57.9185 8.96C58.8905 8.96 59.3585 9.44 59.3585 10.412V10.556H58.9625ZM59.3585 11.204V11.612C59.3585 12.608 58.8065 13.424 57.6545 13.424C57.0185 13.424 56.3345 13.136 56.3345 12.392C56.3345 11.264 58.1465 11.204 58.9505 11.204H59.3585ZM62.9532 4.928H62.1612V14H62.9532V4.928ZM65.836 4.928H65.044V14H65.836V4.928ZM72.9788 11.408V11.048C72.9788 9.512 71.9948 8.252 70.2908 8.24C68.6948 8.24 67.4588 9.5 67.4588 11.192C67.4588 12.884 68.6948 14.144 70.3628 14.144C71.2868 14.144 72.1148 13.796 72.7748 12.956L72.1628 12.452C71.8508 12.956 71.2028 13.424 70.3628 13.424C69.2468 13.424 68.3948 12.536 68.2988 11.408H72.9788ZM68.3228 10.76C68.3228 9.836 69.2588 8.96 70.2908 8.96C71.4308 8.96 72.1148 9.692 72.1148 10.76H68.3228ZM77.3188 8.384H75.6988V6.8H74.9068V8.384H73.7188V9.104H74.9068V12.644C74.9068 13.88 75.6988 14.144 76.2988 14.144C76.6948 14.144 77.0788 14.072 77.3668 13.94L77.3308 13.208C77.0908 13.34 76.7908 13.424 76.5148 13.424C76.0228 13.424 75.6988 13.256 75.6988 12.416V9.104H77.3188V8.384Z" fill="#616161"/>
<rect x="0.25" y="0.25" width="86.5" height="19.5" rx="9.75" stroke="#616161" stroke-width="0.5" stroke-dasharray="2 2"/>
<path d="M13.356 7.304H12.636V10.004H9.936V10.724H12.636V13.424H13.356V10.724H16.056V10.004H13.356V7.304Z" fill="#616161"/>
</svg>
