<svg width="141" height="12" viewBox="0 0 141 12" fill="none" xmlns="http://www.w3.org/2000/svg">
<path d="M4.68838 11.4971C3.78716 11.2621 2.94506 10.8412 2.21609 10.2615C1.48711 9.68187 0.887327 8.95619 0.455344 8.13108C0.0833043 7.41492 -0.0654365 6.60364 0.0283425 5.80207C-0.0675983 5.00495 0.0813357 4.19752 0.455344 3.48708C1.09741 2.33202 2.06673 1.39262 3.24136 0.78707C4.67236 0.11707 5.72337 -0.00391722 10.4284 0.0410828C13.7174 0.0720828 14.7984 0.13208 14.7984 0.26908C14.5021 0.829545 14.1446 1.35542 13.7324 1.83707L12.6824 3.20808H9.6224C5.9834 3.20808 5.29836 3.34507 4.47536 4.25907C4.21163 4.53526 4.01699 4.86993 3.90731 5.23572C3.79763 5.60152 3.776 5.98808 3.84426 6.36382C3.91252 6.73956 4.06873 7.09381 4.30007 7.39765C4.53141 7.70149 4.83134 7.94631 5.17538 8.11208C5.78438 8.44708 6.01236 8.46208 10.3064 8.53808C13.6714 8.59908 14.7984 8.65908 14.7984 8.79708C14.5017 9.3573 14.1442 9.88312 13.7324 10.3651L12.6814 11.7351L9.08736 11.7201C7.61726 11.7989 6.14297 11.7242 4.68838 11.4971Z" fill="white"/>
<path d="M22.138 11.6332C22.037 10.9938 22.0014 10.3458 22.032 9.69918V7.84119L18.682 4.12618C17.4979 2.88076 16.3798 1.57431 15.332 0.212181C15.332 0.0601809 15.819 0.0121839 17.601 0.0121839H19.87L21.957 2.29618L24.027 4.58019L25.961 2.29618L27.895 0.0121839H30.133C30.9123 -0.0262891 31.6936 0.0196534 32.463 0.149193C31.478 1.50875 30.4093 2.80559 29.263 4.03219L25.99 7.76218V9.51319C26.0059 10.1745 25.9755 10.8361 25.899 11.4932C25.823 11.6932 25.499 11.7362 24.026 11.7362C23.3948 11.7676 22.762 11.7331 22.138 11.6332Z" fill="white"/>
<path d="M32.4771 11.4973C32.3553 9.6326 32.3553 7.76196 32.4771 5.89728C32.5531 5.68428 33.162 5.65327 37.7 5.65327C42.527 5.65327 42.846 5.63827 43.319 5.35327C43.4729 5.29354 43.6034 5.18577 43.6911 5.04597C43.7788 4.90617 43.8192 4.74181 43.806 4.57729C43.8421 4.31878 43.7832 4.05595 43.6404 3.83751C43.4975 3.61907 43.2803 3.45983 43.0291 3.38928C41.2075 3.21684 39.3767 3.16105 37.548 3.22227C35.8767 3.31138 34.2009 3.26054 32.538 3.07028C32.8733 2.49391 33.2664 1.95312 33.7111 1.45628L34.868 0.00927734L39.299 0.0552826C43.487 0.100283 43.7761 0.131276 44.5991 0.455276C46.8991 1.38428 48.099 3.31728 47.614 5.34328C47.3476 6.39166 46.6805 7.29365 45.756 7.85529C44.446 8.72329 43.6091 8.86028 39.7421 8.86028H36.3621L36.316 10.2763L36.27 11.6763L34.428 11.7213C32.842 11.7403 32.5501 11.7093 32.4771 11.4973Z" fill="white"/>
<path d="M48.45 11.5423C48.404 11.4513 48.3891 8.81729 48.4041 5.72629L48.45 0.0922852H52.105L52.181 2.14828L52.257 4.20428L55.4091 4.25029L58.561 4.28128L58.606 2.19429L58.6511 0.0942841H62.3101V11.6673L60.452 11.7123L58.579 11.7583V7.47928H52.179V11.7423H50.3521C49.0101 11.7403 48.496 11.6953 48.45 11.5423Z" fill="white"/>
<path d="M63.3729 11.5423C63.3269 11.4513 63.3119 8.81726 63.3269 5.72626L63.3729 0.0922589L69.4489 0.0472607C73.0729 0.0322607 75.6009 0.0782554 75.6759 0.154255C75.7679 0.245255 75.4019 0.839256 74.7169 1.72326L73.6169 3.13926L70.4039 3.21526L67.1759 3.29125V4.20525L71.1759 4.25126C73.9629 4.28226 75.1659 4.34225 75.1659 4.45125C74.8573 5.01779 74.4953 5.55356 74.0849 6.05126L72.9849 7.48226H67.0919V8.54825H71.3399C72.7933 8.48533 74.2494 8.53616 75.6949 8.70026C75.4387 9.28261 75.0947 9.8222 74.6749 10.3003L73.5639 11.7473H68.4939C64.5899 11.7403 63.4179 11.6943 63.3729 11.5423Z" fill="white"/>
<path d="M75.9953 11.5423C75.9653 11.4353 75.9493 10.0803 75.9653 8.54227L76.0103 5.72527L81.5223 5.64928C86.8223 5.57328 87.0493 5.55727 87.4603 5.24927C87.5971 5.16004 87.7095 5.03809 87.7873 4.89447C87.8651 4.75085 87.9058 4.59011 87.9058 4.42677C87.9058 4.26344 87.8651 4.10268 87.7873 3.95906C87.7095 3.81544 87.5971 3.69351 87.4603 3.60428C87.0493 3.30428 86.8523 3.28427 81.5523 3.23927C76.9083 3.19327 76.0713 3.16327 76.1163 2.98027C76.4416 2.41679 76.8136 1.88159 77.2283 1.38028L78.2793 0.00927734H82.4793C87.0163 0.00927734 88.0983 0.146269 89.4223 0.816269C90.3072 1.24564 91.0284 1.95112 91.4773 2.82628C91.8214 3.80302 91.848 4.86352 91.5533 5.85628C91.135 6.66913 90.5152 7.36116 89.7533 7.86627C89.5253 7.98727 89.3273 8.15528 89.3273 8.23128C89.8933 8.83476 90.504 9.39467 91.1543 9.90627C91.8114 10.4156 92.423 10.9811 92.9823 11.5963C92.1167 11.7388 91.238 11.7848 90.3623 11.7333H87.7343L86.0343 10.2863L84.3283 8.82426L82.0753 8.87027L79.8213 8.91628L79.7753 10.3323L79.7303 11.7323H77.9023C76.5593 11.7403 76.0563 11.6953 75.9953 11.5423Z" fill="white"/>
<path d="M98.5155 11.5122C97.2736 11.1852 96.1461 10.5214 95.2575 9.59418C94.7391 9.11335 94.3326 8.52448 94.0668 7.86923C93.801 7.21397 93.6825 6.50833 93.7195 5.80219C93.6818 4.9178 93.8789 4.03919 94.2908 3.25565C94.7027 2.47212 95.3147 1.81159 96.0645 1.34119C97.5715 0.306195 98.3175 0.123188 101.699 0.0471881C105.141 -0.0288119 106.328 0.123184 107.699 0.777184C108.54 1.13052 109.279 1.68927 109.848 2.40224C110.418 3.11522 110.799 3.95964 110.958 4.85819C111.537 7.81219 109.497 10.6302 106.131 11.5122C103.601 11.817 101.045 11.817 98.5155 11.5122ZM105.201 8.39019C105.924 8.1532 106.536 7.66036 106.922 7.00419C107.074 6.63223 107.152 6.23407 107.151 5.83219C107.156 5.3777 107.03 4.93135 106.786 4.54749C106.543 4.16364 106.193 3.85883 105.78 3.67019C105.126 3.30419 104.988 3.28919 102.355 3.28919C99.6435 3.28919 99.5975 3.28919 98.9125 3.70019C98.5469 3.87292 98.2325 4.1378 98.0002 4.46882C97.7678 4.79983 97.6256 5.18559 97.5875 5.58819C97.5085 6.17034 97.6378 6.76169 97.9525 7.25776C98.2672 7.75383 98.7472 8.12269 99.3075 8.29919C101.259 8.58972 103.241 8.62032 105.201 8.39019Z" fill="white"/>
<path d="M115.993 11.4972C115.092 11.2622 114.25 10.8414 113.521 10.2617C112.792 9.68206 112.192 8.95636 111.76 8.13121C111.388 7.41497 111.239 6.60376 111.333 5.8022C111.237 5.00509 111.386 4.1977 111.76 3.4872C112.402 2.33213 113.371 1.39275 114.546 0.787201C116.054 0.072201 116.891 0.0111987 123.622 0.0411987L129.911 0.0861969L129.956 1.8672C129.947 2.46903 129.982 3.07073 130.063 3.66721C130.108 3.66721 131.25 2.8442 132.636 1.8392L135.136 0.012207H137.736C139.716 0.012207 140.336 0.058204 140.336 0.212204C139.143 1.24557 137.898 2.21653 136.605 3.1212C134.549 4.6142 132.844 5.8772 132.813 5.9382C132.782 5.9992 134.473 7.2332 136.574 8.6942C138.674 10.1712 140.411 11.4502 140.456 11.5562C140.502 11.6932 139.878 11.7392 137.792 11.7392H135.093L132.626 9.9882C131.271 9.02921 130.126 8.2372 130.083 8.2372C129.984 8.80529 129.944 9.3819 129.961 9.95821L129.915 11.6632L128.103 11.7082C126.748 11.7392 126.261 11.6932 126.154 11.5562C126.055 11.1221 126.015 10.6769 126.033 10.2322V9.0892L125.013 10.4132L123.978 11.7382L120.399 11.7232C118.926 11.8014 117.45 11.7257 115.993 11.4972ZM126.028 4.55321V0.564209L125.008 1.8882L123.973 3.2132H120.912C117.44 3.2132 116.712 3.3502 115.872 4.1572C115.575 4.46637 115.346 4.83517 115.202 5.2392C115.078 5.71387 115.092 6.21414 115.243 6.68089C115.395 7.14764 115.676 7.56137 116.055 7.8732C116.969 8.4672 117.455 8.5272 121.811 8.5432H126.029V4.55321H126.028Z" fill="white"/>
</svg>
