<svg width="10" height="12" viewBox="0 0 10 12" fill="none" xmlns="http://www.w3.org/2000/svg">
<path d="M6.17072 4.70713C5.98613 4.70713 5.83652 4.85674 5.83652 5.04132V9.46755C5.83652 9.65202 5.98611 9.80174 6.17072 9.80174C6.35532 9.80174 6.50491 9.65202 6.50491 9.46755V5.04132C6.50491 4.85674 6.3553 4.70713 6.17072 4.70713Z" fill="#85633E" stroke="#85633E" stroke-width="0.2"/>
<path d="M3.40509 4.70713C3.22051 4.70713 3.0709 4.85674 3.0709 5.04132V9.46755C3.0709 9.65202 3.22048 9.80174 3.40509 9.80174C3.5897 9.80174 3.73928 9.65202 3.73928 9.46755V5.04132C3.73928 4.85674 3.58967 4.70713 3.40509 4.70713Z" fill="#85633E" stroke="#85633E" stroke-width="0.2"/>
<path d="M2.57102 11.2841H2.57084C2.22671 11.2835 1.89788 11.1414 1.66159 10.891C1.4245 10.6415 1.29073 10.2962 1.29073 9.93116V4.23499C0.850562 4.0808 0.572798 3.63733 0.634001 3.16785L0.634004 3.16783C0.69869 2.67252 1.12067 2.30201 1.62023 2.30191H1.62025H2.7193V2.10944V2.10917H2.8193L2.57102 11.2841ZM2.57102 11.2841H7.00199H7.00217M2.57102 11.2841H7.00217M7.00217 11.2841C7.34638 11.2835 7.6752 11.1414 7.91142 10.891C8.14851 10.6415 8.28228 10.2962 8.28228 9.93116V4.23499C8.72245 4.0808 9.00021 3.63733 8.93901 3.16785L8.939 3.16783M7.00217 11.2841L8.939 3.16783M8.939 3.16783C8.87432 2.67252 8.45234 2.30201 7.95277 2.30191H7.95275M8.939 3.16783L7.95275 2.30191M7.95275 2.30191H6.85371M7.95275 2.30191L6.85371 2.40191V2.30191M6.55409 1.3819L6.55411 1.38192C6.74723 1.57462 6.85514 1.83656 6.85371 2.10937M6.55409 1.3819L6.75371 2.30191H6.85371M6.55409 1.3819C6.36098 1.18929 6.09867 1.08199 5.82588 1.08411M6.55409 1.3819L5.82588 1.08411M6.85371 2.10937C6.85371 2.10949 6.85371 2.10961 6.85371 2.10973L6.75371 2.10917H6.85371V2.10937ZM6.85371 2.10937V2.30191M5.82588 1.08411H3.74713H3.74673H5.82588ZM3.38768 2.10917H3.38769L3.38767 2.10789C3.38646 2.01302 3.42375 1.92169 3.49112 1.85467L3.49116 1.85463C3.5584 1.78768 3.64995 1.75084 3.74501 1.75248L3.74501 1.7525H3.74673H5.82628V1.75251L5.828 1.75248C5.92306 1.75084 6.01461 1.78768 6.08185 1.85463L6.08192 1.85471C6.14924 1.92159 6.18655 2.01299 6.18534 2.10789L6.18533 2.10789V2.10917V2.30191H3.38768V2.10917ZM7.00199 10.6157H2.57102C2.23481 10.6157 1.95911 10.3259 1.95911 9.93116V4.28176H7.6139V9.93116C7.6139 10.3259 7.3382 10.6157 7.00199 10.6157ZM1.62025 2.97029H7.95275C8.13035 2.97029 8.2743 3.11424 8.2743 3.29183C8.2743 3.46943 8.13035 3.61338 7.95275 3.61338H1.62025C1.44266 3.61338 1.29871 3.46943 1.29871 3.29183C1.29871 3.11424 1.44266 2.97029 1.62025 2.97029Z" fill="#85633E" stroke="#85633E" stroke-width="0.2"/>
<path d="M4.7879 4.70713C4.60332 4.70713 4.45371 4.85674 4.45371 5.04132V9.46755C4.45371 9.65202 4.60329 9.80174 4.7879 9.80174C4.97251 9.80174 5.1221 9.65202 5.1221 9.46755V5.04132C5.1221 4.85674 4.97249 4.70713 4.7879 4.70713Z" fill="#85633E" stroke="#85633E" stroke-width="0.2"/>
</svg>
