<svg width="10" height="9" viewBox="0 0 10 9" fill="none" xmlns="http://www.w3.org/2000/svg">
<path d="M1.83022 8.15642L6.30608 8.24382C6.65851 8.24226 6.93276 7.96722 6.9331 7.61445C6.93342 7.27771 6.65068 6.99538 6.31504 6.9961L6.31504 6.99629L6.30507 6.99592L3.93501 6.90642L3.36269 6.8848L3.76767 6.47982L8.90109 1.3464C9.14999 1.0975 9.15215 0.702392 8.91114 0.461379C8.66685 0.217092 8.26286 0.21699 8.01727 0.462586L2.88385 5.596L2.43877 6.04108L2.45718 5.41191L2.52184 3.20233C2.51339 2.854 2.22666 2.57535 1.895 2.57606L1.89471 2.57606C1.54115 2.57641 1.26567 2.85188 1.26533 3.20545L1.26535 3.20545L1.26531 3.20858L1.20675 7.53946C1.20723 7.87557 1.48965 8.15708 1.82481 8.15637L1.82481 8.15631L1.83022 8.15642Z" fill="#8484F1" stroke="#161C23" stroke-width="0.5"/>
</svg>
