<svg width="9" height="9" viewBox="0 0 9 9" fill="none" xmlns="http://www.w3.org/2000/svg">
<path d="M6.96024 3.10497L6.94298 5.31543C6.95889 5.6635 7.25153 5.93593 7.5831 5.92811L7.58339 5.92811C7.93686 5.92018 8.20637 5.63886 8.19913 5.28537L8.19911 5.28537L8.19909 5.28224L8.16477 0.951102C8.15708 0.615082 7.86869 0.339685 7.53362 0.347586L7.53362 0.347645L7.52821 0.347656L3.05151 0.356238C2.6992 0.36536 2.4309 0.646215 2.43813 0.998914C2.44502 1.33559 2.73376 1.61178 3.06931 1.60387L3.0693 1.60367L3.07927 1.60384L5.4507 1.6425L6.02336 1.65184L5.62716 2.06541L0.604993 7.30771C0.36148 7.5619 0.367795 7.95696 0.613921 8.19275C0.86339 8.43175 1.26729 8.42318 1.50756 8.17238L6.52972 2.93008L6.96515 2.47555L6.96024 3.10497Z" fill="#CAA276" stroke="#161C23" stroke-width="0.5"/>
</svg>
