<svg width="24" height="21" viewBox="0 0 24 21" fill="none" xmlns="http://www.w3.org/2000/svg">
<rect width="23.8" height="21" rx="3" fill="#1E2328"/>
<path d="M17.4186 16.6001H7.09302C5.93892 16.6001 5 15.6612 5 14.5071V6.69312C5 5.53902 5.93892 4.6001 7.09302 4.6001H17.4186C18.5727 4.6001 19.5116 5.53902 19.5116 6.69312V14.5071C19.5116 15.6612 18.5727 16.6001 17.4186 16.6001ZM18.6744 9.34427H15.6047C14.9122 9.34427 14.3488 9.90762 14.3488 10.6001C14.3488 11.2926 14.9122 11.8559 15.6047 11.8559H18.6744V9.34427ZM18.6744 12.6931H15.6047C14.4506 12.6931 13.5116 11.7542 13.5116 10.6001C13.5116 9.446 14.4506 8.50707 15.6047 8.50707H18.6744V6.69312C18.6744 6.00067 18.1111 5.43729 17.4186 5.43729H7.09302C6.40057 5.43729 5.8372 6.00064 5.8372 6.69312V14.5071C5.8372 15.1995 6.40054 15.7629 7.09302 15.7629H17.4186C18.1111 15.7629 18.6744 15.1996 18.6744 14.5071V12.6931Z" fill="white"/>
<path d="M16.5763 11H16.0182C15.787 11 15.5996 10.8126 15.5996 10.5814C15.5996 10.3502 15.787 10.1628 16.0182 10.1628H16.5763C16.8075 10.1628 16.9949 10.3502 16.9949 10.5814C16.9949 10.8126 16.8075 11 16.5763 11Z" fill="white"/>
</svg>
